<svg xmlns="http://www.w3.org/2000/svg" width="1100" height="620" viewBox="0 0 1100 620" role="img" aria-labelledby="title desc">
<title id="title">Awesome Loop Models paper-count growth</title>
<desc id="desc">Cumulative repository paper count by added_date with legacy baseline and selected paper annotations.</desc>
<rect width="100%" height="100%" fill="#fbfaf7"/>
<text x="64.0" y="42.0" font-size="24" font-weight="700" fill="#1f2933">Awesome Loop Models: paper-count growth</text>
<text x="64.0" y="66.0" font-size="13" fill="#52606d">Cumulative papers by added_date; 39 legacy entries without added_date are counted as baseline.</text>
<rect x="82" y="86" width="974" height="448" fill="#ffffff" stroke="#d9e2ec"/>
<line x1="82" y1="534.0" x2="1056" y2="534.0" stroke="#edf2f7"/>
<text x="66.0" y="538.0" text-anchor="end" font-size="12" fill="#52606d">41</text>
<line x1="82" y1="443.1" x2="1056" y2="443.1" stroke="#edf2f7"/>
<text x="66.0" y="447.1" text-anchor="end" font-size="12" fill="#52606d">55</text>
<line x1="82" y1="352.2" x2="1056" y2="352.2" stroke="#edf2f7"/>
<text x="66.0" y="356.2" text-anchor="end" font-size="12" fill="#52606d">69</text>
<line x1="82" y1="267.8" x2="1056" y2="267.8" stroke="#edf2f7"/>
<text x="66.0" y="271.8" text-anchor="end" font-size="12" fill="#52606d">82</text>
<line x1="82" y1="176.9" x2="1056" y2="176.9" stroke="#edf2f7"/>
<text x="66.0" y="180.9" text-anchor="end" font-size="12" fill="#52606d">96</text>
<line x1="82" y1="86.0" x2="1056" y2="86.0" stroke="#edf2f7"/>
<text x="66.0" y="90.0" text-anchor="end" font-size="12" fill="#52606d">110</text>
<line x1="82.0" y1="534" x2="82.0" y2="540" stroke="#9fb3c8"/>
<text x="82.0" y="558.0" text-anchor="middle" font-size="12" fill="#52606d">Apr 20</text>
<line x1="434.7" y1="534" x2="434.7" y2="540" stroke="#9fb3c8"/>
<text x="434.7" y="558.0" text-anchor="middle" font-size="12" fill="#52606d">May 11</text>
<line x1="703.3" y1="534" x2="703.3" y2="540" stroke="#9fb3c8"/>
<text x="703.3" y="558.0" text-anchor="middle" font-size="12" fill="#52606d">May 27</text>
<line x1="1056.0" y1="534" x2="1056.0" y2="540" stroke="#9fb3c8"/>
<text x="1056.0" y="558.0" text-anchor="middle" font-size="12" fill="#52606d">Jun 17</text>
<polygon points="82.0,534.0 82.0,495.0 98.8,456.1 149.2,430.1 182.8,423.6 233.1,417.1 249.9,404.1 300.3,391.2 384.3,378.2 434.7,371.7 451.4,352.2 485.0,345.7 552.2,339.2 569.0,326.2 585.8,313.2 602.6,274.3 686.6,267.8 703.3,241.8 787.3,235.3 804.1,202.9 837.7,183.4 955.2,157.4 1022.4,150.9 1039.2,144.4 1056.0,125.0 1056.0,534.0" fill="#cce8f4" opacity="0.65"/>
<polyline points="82.0,495.0 98.8,456.1 149.2,430.1 182.8,423.6 233.1,417.1 249.9,404.1 300.3,391.2 384.3,378.2 434.7,371.7 451.4,352.2 485.0,345.7 552.2,339.2 569.0,326.2 585.8,313.2 602.6,274.3 686.6,267.8 703.3,241.8 787.3,235.3 804.1,202.9 837.7,183.4 955.2,157.4 1022.4,150.9 1039.2,144.4 1056.0,125.0" fill="none" stroke="#227c9d" stroke-width="3.5" stroke-linejoin="round"/>
<circle cx="82.0" cy="495.0" r="8.3" fill="#1f7a8c" stroke="#ffffff" stroke-width="1.5"/>
<circle cx="98.8" cy="456.1" r="8.3" fill="#1f7a8c" stroke="#ffffff" stroke-width="1.5"/>
<circle cx="149.2" cy="430.1" r="6.7" fill="#1f7a8c" stroke="#ffffff" stroke-width="1.5"/>
<circle cx="182.8" cy="423.6" r="4.3" fill="#1f7a8c" stroke="#ffffff" stroke-width="1.5"/>
<circle cx="233.1" cy="417.1" r="4.3" fill="#1f7a8c" stroke="#ffffff" stroke-width="1.5"/>
<circle cx="249.9" cy="404.1" r="5.1" fill="#1f7a8c" stroke="#ffffff" stroke-width="1.5"/>
<circle cx="300.3" cy="391.2" r="5.1" fill="#1f7a8c" stroke="#ffffff" stroke-width="1.5"/>
<circle cx="384.3" cy="378.2" r="5.1" fill="#1f7a8c" stroke="#ffffff" stroke-width="1.5"/>
<circle cx="434.7" cy="371.7" r="4.3" fill="#1f7a8c" stroke="#ffffff" stroke-width="1.5"/>
<circle cx="451.4" cy="352.2" r="5.9" fill="#1f7a8c" stroke="#ffffff" stroke-width="1.5"/>
<circle cx="485.0" cy="345.7" r="4.3" fill="#1f7a8c" stroke="#ffffff" stroke-width="1.5"/>
<circle cx="552.2" cy="339.2" r="4.3" fill="#1f7a8c" stroke="#ffffff" stroke-width="1.5"/>
<circle cx="569.0" cy="326.2" r="5.1" fill="#1f7a8c" stroke="#ffffff" stroke-width="1.5"/>
<circle cx="585.8" cy="313.2" r="5.1" fill="#1f7a8c" stroke="#ffffff" stroke-width="1.5"/>
<circle cx="602.6" cy="274.3" r="8.3" fill="#1f7a8c" stroke="#ffffff" stroke-width="1.5"/>
<circle cx="686.6" cy="267.8" r="4.3" fill="#1f7a8c" stroke="#ffffff" stroke-width="1.5"/>
<circle cx="703.3" cy="241.8" r="6.7" fill="#1f7a8c" stroke="#ffffff" stroke-width="1.5"/>
<circle cx="787.3" cy="235.3" r="4.3" fill="#1f7a8c" stroke="#ffffff" stroke-width="1.5"/>
<circle cx="804.1" cy="202.9" r="7.5" fill="#1f7a8c" stroke="#ffffff" stroke-width="1.5"/>
<circle cx="837.7" cy="183.4" r="5.9" fill="#1f7a8c" stroke="#ffffff" stroke-width="1.5"/>
<circle cx="955.2" cy="157.4" r="6.7" fill="#1f7a8c" stroke="#ffffff" stroke-width="1.5"/>
<circle cx="1022.4" cy="150.9" r="4.3" fill="#1f7a8c" stroke="#ffffff" stroke-width="1.5"/>
<circle cx="1039.2" cy="144.4" r="4.3" fill="#1f7a8c" stroke="#ffffff" stroke-width="1.5"/>
<circle cx="1056.0" cy="125.0" r="5.9" fill="#1f7a8c" stroke="#ffffff" stroke-width="1.5"/>
<line x1="82.0" y1="457.0" x2="82.0" y2="489.0" stroke="#b7791f"/>
<text x="92.0" y="453.0" font-size="12" fill="#8a5a12" font-weight="700">Legacy anchors: ACT / UT / DEQ</text>
<line x1="602.6" y1="274.3" x2="562.6" y2="218.3" stroke="#dd6b20" stroke-width="1.2"/>
<rect x="554.6" y="203.3" width="76.0" height="24" rx="4" fill="#fff7ed" stroke="#fdba74"/>
<text x="562.6" y="220.3" font-size="12" fill="#9a3412" font-weight="700">EqR (81)</text>
<line x1="1039.2" y1="144.4" x2="889.2" y2="78.4" stroke="#dd6b20" stroke-width="1.2"/>
<rect x="881.2" y="63.4" width="76.0" height="24" rx="4" fill="#fff7ed" stroke="#fdba74"/>
<text x="889.2" y="80.4" font-size="12" fill="#9a3412" font-weight="700">LoopWM (101)</text>
<line x1="1056.0" y1="125.0" x2="926.0" y2="155.0" stroke="#dd6b20" stroke-width="1.2"/>
<rect x="918.0" y="140.0" width="76.0" height="24" rx="4" fill="#fff7ed" stroke="#fdba74"/>
<text x="926.0" y="157.0" font-size="12" fill="#9a3412" font-weight="700">FPRM (104)</text>
<line x1="1056.0" y1="125.0" x2="1028.0" y2="183.0" stroke="#dd6b20" stroke-width="1.2"/>
<rect x="1020.0" y="168.0" width="99.6" height="24" rx="4" fill="#fff7ed" stroke="#fdba74"/>
<text x="1028.0" y="185.0" font-size="12" fill="#9a3412" font-weight="700">LoopCoder-v2 (104)</text>
<line x1="1056.0" y1="125.0" x2="796.0" y2="139.0" stroke="#dd6b20" stroke-width="1.2"/>
<rect x="788.0" y="124.0" width="132.8" height="24" rx="4" fill="#fff7ed" stroke="#fdba74"/>
<text x="796.0" y="141.0" font-size="12" fill="#9a3412" font-weight="700">Residual scaling (104)</text>
<text x="1052.0" y="68.0" text-anchor="end" font-size="14" fill="#1f2933" font-weight="700">104 papers on 2026-06-17</text>
<text x="569.0" y="594.0" text-anchor="middle" font-size="13" fill="#1f2933" font-weight="700">Repository intake date</text>
<text x="24.0" y="310.0" text-anchor="middle" font-size="13" fill="#1f2933" font-weight="700" transform="rotate(-90 24 310.0)">Cumulative papers</text>
</svg>
